# xmcd
#
# Track frame offsets:
#	150
#	19124
#	43596
#	60721
#	76005
#	96245
#	112539
#	134334
#	146098
#	163928
#
# Disc length: 2412 seconds
#
# Revision: 3
# Processed by: cddbd v1.5.1PL0 Copyright (c) Steve Scherf et al.
# Submitted via: dBpowerAMP V4.0
#
DISCID=7c096a0a
DTITLE=Johnny Winter - Guitar Slinger
DYEAR=1900
DGENRE=Blues
TTITLE0=It's my Life, Baby
TTITLE1=Don't Take Advantage of Me
TTITLE2=Iodine in my Coffee
TTITLE3=Trick Bag
TTITLE4=Mad Dog
TTITLE5=Boot Hill
TTITLE6=I Smell Trouble
TTITLE7=Lights Out
TTITLE8=Kiss Tomorrow Goodbye
TTITLE9=My Soul
EXTD=
EXTT0=
EXTT1=
EXTT2=
EXTT3=
EXTT4=
EXTT5=
EXTT6=
EXTT7=
EXTT8=
EXTT9=
PLAYORDER=
